<?xml version="1.0" encoding="UTF-8" standalone="no"?>
<!DOCTYPE svg PUBLIC "-//W3C//DTD SVG 1.1//EN" "http://www.w3.org/Graphics/SVG/1.1/DTD/svg11.dtd">
<svg width="100%" height="100%" viewBox="0 0 1024 1024" version="1.1" xmlns="http://www.w3.org/2000/svg" xmlns:xlink="http://www.w3.org/1999/xlink" xml:space="preserve" xmlns:serif="http://www.serif.com/" style="fill-rule:evenodd;clip-rule:evenodd;stroke-linejoin:round;stroke-miterlimit:2;">
    <g transform="matrix(1.81162,0,0,1.81162,-413.081,-452.679)">
        <g id="DALL·E-2024-04-22-17.48.28---Create-a-minimalist-logo-with-the-name--Mihnea-.-The-logo-should-feature-simple-typography-with-clean-lines--without-additional-shapes-or-symbols.-Use.svg" serif:id="DALL·E 2024-04-22 17.48.28 - Create a minimalist logo with the name &apos;Mihnea&apos;. The logo should feature simple typography with clean lines, without additional shapes or symbols. Use.svg">
            <g>
                <g>
                    <path d="M254.5,425.5L760.5,425.5L760.5,426.5C633.833,426.333 507.166,426.5 380.5,427C377.137,428.188 374.137,430.021 371.5,432.5C373.274,433.187 374.941,434.02 376.5,435C401.167,435.333 425.833,435.667 450.5,436C452.058,436.21 453.391,436.71 454.5,437.5L264.5,437.5C276.326,436.669 288.326,436.169 300.5,436C311.106,434.825 311.773,432.158 302.5,428C299.5,427.667 296.5,427.333 293.5,427C284.124,426.876 274.79,426.709 265.5,426.5C261.927,426.399 258.594,427.066 255.5,428.5C255.657,429.873 255.49,431.207 255,432.5C253.193,430.294 253.026,427.961 254.5,425.5Z" style="fill:white;"/>
                </g>
                <g>
                    <path d="M760.5,426.5L760.5,449.5C759.669,460.993 759.169,472.659 759,484.5C757.301,483.594 755.467,483.261 753.5,483.5C753.666,488.844 753.499,494.177 753,499.5C752.586,499.957 752.086,500.291 751.5,500.5C751.167,497.667 750.833,494.833 750.5,492C749.958,474.002 749.291,456.168 748.5,438.5C650.668,437.501 552.668,437.167 454.5,437.5C453.391,436.71 452.058,436.21 450.5,436C425.833,435.667 401.167,435.333 376.5,435C374.941,434.02 373.274,433.187 371.5,432.5C374.137,430.021 377.137,428.188 380.5,427C507.166,426.5 633.833,426.333 760.5,426.5Z" style="fill:white;"/>
                </g>
                <g>
                    <path d="M254.5,425.5C253.026,427.961 253.193,430.294 255,432.5C255.49,431.207 255.657,429.873 255.5,428.5C258.594,427.066 261.927,426.399 265.5,426.5C274.79,426.709 284.124,426.876 293.5,427C296.5,427.333 299.5,427.667 302.5,428C311.773,432.158 311.106,434.825 300.5,436C288.326,436.169 276.326,436.669 264.5,437.5L264.5,583.5C425.666,584.5 586.999,584.833 748.5,584.5L748.5,438.5C749.291,456.168 749.958,474.002 750.5,492C750.833,494.833 751.167,497.667 751.5,500.5C752.086,500.291 752.586,499.957 753,499.5C753.499,494.177 753.666,488.844 753.5,483.5C755.467,483.261 757.301,483.594 759,484.5C759.169,472.659 759.669,460.993 760.5,449.5L760.5,596.5L252.5,596.5C251.837,539.157 252.504,482.157 254.5,425.5Z" style="fill:white;"/>
                </g>
                <g>
                    <path d="M643.5,515.5C635.684,516.492 627.684,516.826 619.5,516.5L619.5,535.5C629.015,535.173 638.348,535.506 647.5,536.5L618.5,536.5L618.5,515.5L643.5,515.5Z" style="fill:white;"/>
                </g>
                <g>
                    <path d="M486.5,474.5C490.634,473.515 494.968,473.182 499.5,473.5C499.831,498.672 499.498,523.672 498.5,548.5L498.5,474.5L486.5,474.5Z" style="fill:white;"/>
                </g>
                <g>
                    <path d="M537.5,473.5C538.167,473.5 538.5,473.833 538.5,474.5L525.5,474.5L525.5,548.5L537.5,548.5C533.366,549.485 529.032,549.818 524.5,549.5L524.5,473.5L537.5,473.5Z" style="fill:white;"/>
                </g>
                <g>
                    <path d="M306.5,500.5L306.5,549.5C301.637,549.819 296.97,549.486 292.5,548.5L305.5,548.5C305.168,531.755 305.501,515.755 306.5,500.5Z" style="fill:white;"/>
                </g>
                <g>
                    <path d="M455.5,502.5L486.5,502.5L486.5,474.5L498.5,474.5L498.5,548.5L486.5,548.5L486.5,515.5L453.5,515.5L453.5,548.5L440.5,548.5L440.5,474.5C444.634,473.515 448.968,473.182 453.5,473.5C452.86,483.558 453.527,493.225 455.5,502.5Z" style="fill:white;"/>
                </g>
                <g>
                    <path d="M362.5,484.5L362.5,548.5L349.5,548.5L349.5,506.5C349.663,504.143 349.497,501.81 349,499.5C345.333,502.336 341.833,505.336 338.5,508.5C337.943,506.051 337.943,503.718 338.5,501.5C339.281,502.729 339.781,504.062 340,505.5C342.142,502.028 344.642,498.861 347.5,496C348.549,495.508 349.549,495.674 350.5,496.5C351.452,494.955 351.785,493.288 351.5,491.5C352.822,491.67 353.989,491.337 355,490.5C355.499,486.848 355.665,483.182 355.5,479.5L359.5,479.5C359.273,481.933 360.273,483.599 362.5,484.5Z" style="fill:white;"/>
                </g>
                <g>
                    <path d="M292.5,473.5L305.5,473.5C305.547,476.928 306.713,479.928 309,482.5C315,489.833 321,497.167 327,504.5C335.969,495.397 343.469,485.397 349.5,474.5L362.5,474.5L362.5,484.5C360.273,483.599 359.273,481.933 359.5,479.5L355.5,479.5C355.665,483.182 355.499,486.848 355,490.5C353.989,491.337 352.822,491.67 351.5,491.5C351.785,493.288 351.452,494.955 350.5,496.5C349.549,495.674 348.549,495.508 347.5,496C344.642,498.861 342.142,502.028 340,505.5C339.781,504.062 339.281,502.729 338.5,501.5C337.943,503.718 337.943,506.051 338.5,508.5L338.5,509.5C335.183,513.649 331.35,517.316 327,520.5C319.648,514.314 312.814,507.647 306.5,500.5C305.501,515.755 305.168,531.755 305.5,548.5L292.5,548.5L292.5,473.5Z" style="fill:white;"/>
                </g>
                <g>
                    <path d="M398.5,474.5C400.641,473.837 402.975,473.503 405.5,473.5C408.269,473.529 410.603,474.195 412.5,475.5C412.831,500.006 412.498,524.339 411.5,548.5L411.5,474.5L398.5,474.5Z" style="fill:white;"/>
                </g>
                <g>
                    <path d="M724.5,548.5L711.5,548.5C709.767,538.9 707.433,529.567 704.5,520.5C703.329,513.481 701.996,506.481 700.5,499.5C700.267,498.068 699.6,497.568 698.5,498C693.863,508.713 690.863,519.88 689.5,531.5C688.008,536.672 686.674,542.005 685.5,547.5C681.167,548.833 676.833,548.833 672.5,547.5C676.15,533.568 679.483,519.568 682.5,505.5C685.461,495.333 688.295,484.999 691,474.5C696.114,473.196 701.281,473.196 706.5,474.5C713.13,499.018 719.13,523.685 724.5,548.5Z" style="fill:white;"/>
                </g>
                <g>
                    <path d="M605.5,474.5L647.5,474.5L647.5,486.5C637.985,486.173 628.652,486.506 619.5,487.5C618.512,492.64 618.179,497.974 618.5,503.5L643.5,503.5L643.5,515.5L618.5,515.5L618.5,536.5L647.5,536.5L647.5,548.5L605.5,548.5L605.5,474.5Z" style="fill:white;"/>
                </g>
                <g>
                    <path d="M566.5,549.5C565.715,544.248 565.215,538.915 565,533.5C556.637,521.651 548.137,509.985 539.5,498.5C539.217,497.711 538.717,497.044 538,496.5C537.5,513.83 537.333,531.163 537.5,548.5L525.5,548.5L525.5,474.5L538.5,474.5C547.557,486.926 556.391,499.592 565,512.5C565.333,499.833 565.667,487.167 566,474.5C570.401,473.533 574.901,473.2 579.5,473.5L579.5,549.5L566.5,549.5Z" style="fill:white;"/>
                </g>
                <g>
                    <path d="M539.5,498.5C538.833,515.167 538.167,531.833 537.5,548.5C537.333,531.163 537.5,513.83 538,496.5C538.717,497.044 539.217,497.711 539.5,498.5Z" style="fill:white;"/>
                </g>
                <g>
                    <path d="M398.5,474.5L411.5,474.5L411.5,548.5C407.434,549.822 403.267,549.822 399,548.5C398.5,523.836 398.333,499.169 398.5,474.5Z" style="fill:white;"/>
                </g>
                <g>
                    <path d="M605.5,474.5C619.657,473.504 633.99,473.171 648.5,473.5L648.5,487.5L619.5,487.5C628.652,486.506 637.985,486.173 647.5,486.5L647.5,474.5L605.5,474.5Z" style="fill:white;"/>
                </g>
                <g>
                    <path d="M760.5,425.5C761.499,482.664 761.832,539.998 761.5,597.5C591.666,597.833 421.999,597.5 252.5,596.5L760.5,596.5L760.5,425.5Z" style="fill:white;"/>
                </g>
            </g>
        </g>
    </g>
</svg>
